<svg xmlns="http://www.w3.org/2000/svg" enable-background="new 0 0 68 68" viewBox="0 0 68 68"><path d="M48.82504 16.63214H34.61502l-16.06-9.28998C17.845 6.93218 17.595 6.01214 18.00504 5.30218l2.06-3.56c.39996-.69 1.34998-.94 2.03998-.55005L48.82504 16.63214zM53.715 20.63214v3.11005c0 1.09998-.88995 2-2 2h-35.63c-1.09998 0-2-.90002-2-2v-3.11005c0-1.09998.90002-2 2-2h35.63C52.82504 18.63214 53.715 19.53216 53.715 20.63214zM51.465 27.74218l-3.59998 22.60998c-.42999-.07001-.87-.10004-1.32001-.10004-5.20346 0-9.37 4.16068-9.37 9.37006 0 1.20996.22998 2.39996.70001 3.53998H24.535c-1.48999 0-2.72998-1.06-2.95996-2.53003l-5.24005-32.88995H51.465z"/><circle cx="46.543" cy="59.622" r="1.124"/><path d="M46.54501,52.25213c-4.06534,0-7.37,3.22753-7.37,7.37006c0,4.06347,3.28921,7.37,7.37,7.37c4.06,0,7.37-3.31,7.37-7.37
			S50.60501,52.25213,46.54501,52.25213z M46.54269,62.7459c-1.72266,0-3.12402-1.40137-3.12402-3.12402
			s1.40137-3.12402,3.12402-3.12402s3.12402,1.40137,3.12402,3.12402S48.26535,62.7459,46.54269,62.7459z"/></svg>